<?xml version="1.0" encoding="utf-8"?>
<!-- Generator: Adobe Illustrator 15.1.0, SVG Export Plug-In . SVG Version: 6.00 Build 0)  -->
<!DOCTYPE svg PUBLIC "-//W3C//DTD SVG 1.1//EN" "http://www.w3.org/Graphics/SVG/1.1/DTD/svg11.dtd">
<svg version="1.1" id="Layer_4" xmlns="http://www.w3.org/2000/svg" xmlns:xlink="http://www.w3.org/1999/xlink" x="0px" y="0px"
	 width="232px" height="81px" viewBox="0 0 232 81" enable-background="new 0 0 232 81" xml:space="preserve">
<g id="Layer_4_1_">
	<g>
		<g>
			<g>
				<path d="M116,9.1499C140.51758,9.06641,140.60156,1,178.37891,1C205.94141,1,220.08008,4.9917,231,7.65283v18.61963
					c-2.84766-0.23145-4.25879-0.78418-5.66992,0.50684C221.44043,30.33545,229.41602,80,179.21289,80
					C117.33398,80,134.88867,27.36182,116,27.36182 M132.8457,32.7666c1.33398,23.61621,16.42773,41.16211,42.94727,41.16309
					c24.26855,0,38.94531-6.1543,39.69531-41.32959c0.45508-21.28369-18.0957-25.19629-41.36328-25.19629
					C152.44238,7.40381,131.66992,11.96191,132.8457,32.7666z"/>
			</g>
		</g>
	</g>
	<g>
		<g>
			<g>
				<path d="M116,9.1499C91.48193,9.06641,91.39893,1,53.62158,1C26.05908,1,11.91992,4.9917,1,7.65283v18.61963
					c2.84766-0.23145,4.25879-0.78418,5.66992,0.50684C10.55957,30.33545,2.58398,80,52.7876,80
					C114.66602,80,97.11133,27.36182,116,27.36182 M99.15479,32.7666C97.8208,56.38281,82.72656,73.92871,56.20654,73.92969
					c-24.26807,0-38.94482-6.1543-39.69531-41.32959C16.05713,11.31641,34.60742,7.40381,57.87451,7.40381
					C79.55762,7.40381,100.33057,11.96191,99.15479,32.7666z"/>
			</g>
		</g>
	</g>
</g>
</svg>
